<svg xmlns="http://www.w3.org/2000/svg" viewBox="0 0 512 512"><title>neon-bue</title><g id="Blau_v2_Kopie" data-name="Blau v2 Kopie"><g id="Ebene_4_Kopie_Kopie_Kopie_Kopie" data-name="Ebene 4 Kopie Kopie Kopie Kopie"><text transform="translate(114.08 343.39)" style="font-size:50px;fill:#fff;font-family:IBMPlexSans, IBM Plex Sans">MARKE<tspan x="165.5" y="0" style="letter-spacing:-0.0069921875em">T</tspan><tspan x="193.75" y="0">ING</tspan></text><g id="Ebene_3_Kopie_Kopie_Kopie_Kopie" data-name="Ebene 3 Kopie Kopie Kopie Kopie"><path d="M648.7,208.48l-8.07-25.56h-1l-17.81,89h-17l23.09-115.09h19.79l22.42,63.48,8.08,25.55h1l17.81-89h17L690.92,272H671.13Z" transform="translate(-256)" style="fill:#fff"/><path d="M545.57,272a43,43,0,0,1-15.28-2.7,34,34,0,0,1-12.49-8.19,39.18,39.18,0,0,1-8.43-13.75,55,55,0,0,1-3.1-19.38,89.71,89.71,0,0,1,4-26.78,72.93,72.93,0,0,1,11.38-22.57A56.37,56.37,0,0,1,539.52,163a47.54,47.54,0,0,1,23.39-5.81,43.63,43.63,0,0,1,15.36,2.71,33.92,33.92,0,0,1,12.57,8.18,39.27,39.27,0,0,1,8.43,13.75,55,55,0,0,1,3.1,19.39A87.81,87.81,0,0,1,598.31,228a74.06,74.06,0,0,1-11.45,22.57A56.53,56.53,0,0,1,569,266.16,47.64,47.64,0,0,1,545.57,272Zm1.59-15.26q13.37,0,21.8-8.53T580.57,224l3.5-16.91a31.47,31.47,0,0,0,.8-5.27c.1-1.7.16-3.24.16-4.62q0-11.64-6-18.19t-17.34-6.54q-13.21,0-21.88,8.61t-11.85,24.41l-3.35,16.59a35.16,35.16,0,0,0-.79,5.35c-.11,1.65-.16,3.16-.16,4.54q0,11.66,6,18.19T547.16,256.7Z" transform="translate(-256)" style="fill:#fff"/><g id="Ebene_5_Kopie_Kopie_Kopie_Kopie" data-name="Ebene 5 Kopie Kopie Kopie Kopie"><path d="M422.38,214.79c.87-4.35,6.08-7.91,11.58-7.91l50.72,0c5.5,0,9.29,3.56,8.42,7.91s-6.08,7.92-11.58,7.92l-50.72,0C425.3,222.71,421.52,219.15,422.38,214.79Z" transform="translate(-256)" style="fill:#22b4fe"/><path d="M412.45,254.56c.87-4.35,6.08-7.92,11.58-7.92h50.72c5.5,0,9.29,3.56,8.42,7.91s-6.08,7.91-11.58,7.92H420.87C415.37,262.47,411.58,258.91,412.45,254.56Z" transform="translate(-256)" style="fill:#22b4fe"/><path d="M432.32,175c.87-4.35,6.08-7.92,11.58-7.92h50.72c5.5,0,9.29,3.57,8.42,7.92s-6.08,7.91-11.58,7.91H440.74C435.24,182.94,431.45,179.38,432.32,175Z" transform="translate(-256)" style="fill:#22b4fe"/></g><path d="M353.86,208.48l-8.08-25.56h-1L327,272H310l23.08-115.09h19.79l22.43,63.48,8.07,25.55h1l17.81-89h17L396.07,272H376.28Z" transform="translate(-256)" style="fill:#fff"/></g></g></g><g id="FRAME"><rect width="512" height="512" style="fill:none"/></g></svg>